<svg width="28" height="28" viewBox="0 0 28 28" fill="none" xmlns="http://www.w3.org/2000/svg">
<path d="M24.667 5.99999H19.333V3.33299C19.333 1.86699 18.133 0.666992 16.667 0.666992H11.333C10.6267 0.669365 9.94993 0.951008 9.45047 1.45047C8.95101 1.94992 8.66936 2.62666 8.66699 3.33299V5.99999H3.33299C2.62648 6.00237 1.9496 6.28415 1.45011 6.78382C0.950628 7.2835 0.669101 7.96048 0.666992 8.66699V24.667C0.666992 26.133 1.86699 27.333 3.33299 27.333H24.667C26.133 27.333 27.333 26.133 27.333 24.667V8.66699C27.333 7.19999 26.133 5.99999 24.667 5.99999ZM11.333 3.33299H16.667V5.99999H11.333V3.33299ZM18 18H15.333V20.667C15.333 21.4 14.733 22 14 22C13.267 22 12.667 21.4 12.667 20.667V18H9.99999C9.26699 18 8.66699 17.4 8.66699 16.667C8.66699 15.933 9.26699 15.333 9.99999 15.333H12.667V12.667C12.667 11.933 13.267 11.333 14 11.333C14.733 11.333 15.333 11.933 15.333 12.667V15.333H18C18.733 15.333 19.333 15.933 19.333 16.667C19.333 17.4 18.733 18 18 18Z" fill="#224722"/>
</svg>
