<svg width="156" height="47" viewBox="0 0 156 47" fill="none" xmlns="http://www.w3.org/2000/svg">
<g clip-path="url(#clip0_1_23)">
<path d="M150.222 1.49783C152.897 1.49783 155.074 3.62019 155.074 6.22842V40.0284C155.074 42.6367 152.897 44.7591 150.222 44.7591H5.77778C3.10267 44.7591 0.925889 42.6367 0.925889 40.0284V6.22842C0.925889 3.62019 3.10267 1.49783 5.77778 1.49783H150.222ZM150.222 0.595093H5.77778C2.60145 0.595093 0 3.1315 0 6.22842V40.0284C0 43.1254 2.60145 45.6618 5.77778 45.6618H150.222C153.399 45.6618 156 43.1254 156 40.0284V6.22842C156 3.1315 153.399 0.595093 150.222 0.595093Z" fill="#224722"/>
<path d="M34.8154 22.8852C34.7818 19.254 37.8648 17.4873 38.0058 17.4051C36.2597 14.9231 33.5535 14.584 32.6024 14.5569C30.3295 14.3236 28.1247 15.883 26.9668 15.883C25.7858 15.883 24.0028 14.5794 22.0811 14.6178C19.6082 14.6549 17.2948 16.0509 16.026 18.2185C13.4075 22.6384 15.3604 29.1337 17.8691 32.7063C19.124 34.456 20.5904 36.4097 22.5098 36.341C24.3876 36.2655 25.089 35.1737 27.3551 35.1737C29.6003 35.1737 30.2589 36.341 32.2165 36.2971C34.2317 36.2655 35.5005 34.5395 36.7116 32.7739C38.1618 30.7685 38.7442 28.7935 38.7674 28.6921C38.7199 28.6762 34.8535 27.2376 34.8154 22.8852Z" fill="#224722"/>
<path d="M31.1175 12.2067C32.1275 10.9752 32.8186 9.29987 32.6267 7.59973C31.165 7.66282 29.3368 8.58556 28.2842 9.78997C27.3527 10.8513 26.5207 12.5909 26.7357 14.2268C28.3778 14.3463 30.0637 13.4189 31.1175 12.2067Z" fill="#224722"/>
<path d="M61.9894 36.0894H59.3652L57.9276 31.6853H52.931L51.5617 36.0894H49.0068L53.9572 21.0957H57.0148L61.9894 36.0894ZM57.4943 29.8375L56.1943 25.9223C56.0569 25.5224 55.7991 24.5804 55.419 23.0978H55.3727C55.2214 23.7354 54.9775 24.6774 54.6425 25.9223L53.3655 29.8375H57.4943Z" fill="#224722"/>
<path d="M74.72 30.5508C74.72 32.3895 74.2104 33.8429 73.1912 34.9099C72.2783 35.8596 71.1447 36.334 69.7916 36.334C68.331 36.334 67.2817 35.8225 66.6427 34.7995H66.5964V40.4948H64.1328V28.8372C64.1328 27.6812 64.1016 26.4948 64.0415 25.278H66.2081L66.3457 26.9917H66.3919C67.2135 25.7006 68.4604 25.056 70.1336 25.056C71.4417 25.056 72.5337 25.5597 73.4073 26.5681C74.2832 27.5775 74.72 28.9048 74.72 30.5508ZM72.2102 30.6387C72.2102 29.5863 71.9675 28.7188 71.4798 28.0361C70.9471 27.3241 70.2318 26.968 69.3351 26.968C68.7273 26.968 68.175 27.1664 67.6815 27.5572C67.187 27.9516 66.8633 28.4665 66.712 29.1042C66.6358 29.4016 66.5976 29.645 66.5976 29.8366V31.6392C66.5976 32.4255 66.8449 33.0892 67.3395 33.6311C67.834 34.1731 68.4766 34.4435 69.267 34.4435C70.1948 34.4435 70.9171 34.0942 71.4336 33.3979C71.9513 32.7005 72.2102 31.7811 72.2102 30.6387Z" fill="#224722"/>
<path d="M87.4734 30.5508C87.4734 32.3895 86.9638 33.8429 85.9435 34.9099C85.0318 35.8596 83.8982 36.334 82.5449 36.334C81.0843 36.334 80.0351 35.8225 79.3972 34.7995H79.351V40.4948H76.8873V28.8372C76.8873 27.6812 76.8561 26.4948 76.7961 25.278H78.9627L79.1003 26.9917H79.1465C79.967 25.7006 81.2137 25.056 82.8881 25.056C84.1951 25.056 85.2871 25.5597 86.163 26.5681C87.0355 27.5775 87.4734 28.9048 87.4734 30.5508ZM84.9635 30.6387C84.9635 29.5863 84.7198 28.7188 84.2321 28.0361C83.6993 27.3241 82.9864 26.968 82.0886 26.968C81.4795 26.968 80.9283 27.1664 80.4337 27.5572C79.9392 27.9516 79.6168 28.4665 79.4654 29.1042C79.3903 29.4016 79.351 29.645 79.351 29.8366V31.6392C79.351 32.4255 79.5983 33.0892 80.0905 33.6311C80.5851 34.1719 81.2276 34.4435 82.0203 34.4435C82.9483 34.4435 83.6705 34.0942 84.187 33.3979C84.7047 32.7005 84.9635 31.7811 84.9635 30.6387Z" fill="#224722"/>
<path d="M101.733 31.885C101.733 33.1604 101.279 34.198 100.367 34.999C99.3654 35.8745 97.9707 36.3117 96.1785 36.3117C94.5236 36.3117 93.1971 36.0007 92.1929 35.3777L92.7638 33.3755C93.8454 34.0133 95.0321 34.3332 96.3252 34.3332C97.2531 34.3332 97.9753 34.1282 98.4942 33.7203C99.0107 33.3124 99.2684 32.7649 99.2684 32.0821C99.2684 31.4737 99.0558 30.9611 98.6294 30.5454C98.2052 30.1296 97.4969 29.7432 96.5078 29.386C93.8153 28.4069 92.4702 26.9727 92.4702 25.0866C92.4702 23.8541 92.9417 22.8434 93.8858 22.057C94.8265 21.2694 96.0814 20.8763 97.6505 20.8763C99.05 20.8763 100.212 21.1141 101.14 21.5884L100.524 23.5465C99.6578 23.0868 98.6779 22.8569 97.5812 22.8569C96.7145 22.8569 96.0374 23.0654 95.5521 23.4801C95.1419 23.8507 94.9361 24.3025 94.9361 24.8376C94.9361 25.4303 95.1708 25.9203 95.6422 26.3056C96.0524 26.6617 96.7977 27.047 97.8793 27.4628C99.2025 27.9821 100.174 28.5894 100.8 29.2857C101.422 29.9798 101.733 30.8485 101.733 31.885Z" fill="#224722"/>
<path d="M109.879 27.0807H107.164V32.3298C107.164 33.6649 107.642 34.3318 108.601 34.3318C109.041 34.3318 109.407 34.2947 109.695 34.2203L109.764 36.0444C109.278 36.2213 108.639 36.3103 107.848 36.3103C106.875 36.3103 106.114 36.0207 105.566 35.4428C105.019 34.8636 104.744 33.8924 104.744 32.5281V27.0783H103.126V25.2757H104.744V23.2962L107.164 22.5842V25.2757H109.879V27.0807Z" fill="#224722"/>
<path d="M122.131 30.5949C122.131 32.2567 121.643 33.621 120.67 34.688C119.65 35.7865 118.296 36.3341 116.607 36.3341C114.98 36.3341 113.685 35.8079 112.719 34.7556C111.753 33.7034 111.27 32.375 111.27 30.774C111.27 29.0986 111.767 27.7263 112.764 26.6593C113.759 25.5914 115.102 25.0573 116.79 25.0573C118.417 25.0573 119.726 25.5834 120.714 26.6368C121.659 27.6587 122.131 28.9781 122.131 30.5949ZM119.575 30.6726C119.575 29.6755 119.356 28.8203 118.914 28.1072C118.397 27.2441 117.659 26.8137 116.702 26.8137C115.712 26.8137 114.959 27.2452 114.443 28.1072C114 28.8214 113.782 29.6901 113.782 30.7177C113.782 31.7147 114 32.5699 114.443 33.2819C114.976 34.145 115.72 34.5754 116.68 34.5754C117.621 34.5754 118.359 34.136 118.892 33.2594C119.346 32.5327 119.575 31.6686 119.575 30.6726Z" fill="#224722"/>
<path d="M130.14 27.3906C129.896 27.3466 129.636 27.3241 129.364 27.3241C128.497 27.3241 127.826 27.6429 127.354 28.2818C126.944 28.8451 126.739 29.5571 126.739 30.4167V36.0896H124.276L124.3 28.6828C124.3 27.4368 124.269 26.3022 124.207 25.2791H126.353L126.443 27.3477H126.511C126.771 26.6368 127.181 26.0645 127.743 25.6352C128.291 25.2487 128.884 25.056 129.523 25.056C129.751 25.056 129.957 25.0719 130.14 25.1V27.3906Z" fill="#224722"/>
<path d="M141.158 30.1723C141.158 30.6027 141.128 30.9654 141.067 31.2617H133.676C133.706 32.3298 134.062 33.1467 134.749 33.71C135.372 34.2136 136.177 34.466 137.166 34.466C138.261 34.466 139.258 34.2959 140.157 33.9544L140.542 35.6219C139.494 36.0681 138.254 36.2901 136.826 36.2901C135.106 36.2901 133.756 35.7966 132.775 34.8107C131.794 33.8249 131.302 32.501 131.302 30.8404C131.302 29.2101 131.759 27.8525 132.673 26.7698C133.63 25.6138 134.923 25.0358 136.551 25.0358C138.148 25.0358 139.359 25.6138 140.18 26.7698C140.831 27.688 141.158 28.8237 141.158 30.1723ZM138.808 29.5492C138.824 28.8372 138.664 28.2221 138.33 27.7026C137.904 27.0345 137.248 26.7011 136.366 26.7011C135.562 26.7011 134.907 27.0266 134.405 27.68C133.995 28.1995 133.751 28.8225 133.676 29.5481H138.808V29.5492Z" fill="#224722"/>
<path d="M56.6801 11.8719C56.6801 13.1979 56.2723 14.1962 55.4576 14.8665C54.703 15.485 53.6307 15.7949 52.2417 15.7949C51.5529 15.7949 50.9636 15.7656 50.4702 15.707V8.46145C51.1139 8.36005 51.8072 8.30823 52.556 8.30823C53.8791 8.30823 54.8763 8.58877 55.5489 9.14985C56.3023 9.78416 56.6801 10.6911 56.6801 11.8719ZM55.4033 11.9045C55.4033 11.0449 55.1699 10.3858 54.703 9.92612C54.2361 9.46757 53.5544 9.23773 52.6566 9.23773C52.2752 9.23773 51.9505 9.26251 51.6812 9.31434V14.8227C51.8303 14.8452 52.103 14.8552 52.4993 14.8552C53.4262 14.8552 54.1414 14.604 54.6452 14.1016C55.1491 13.5991 55.4033 12.8667 55.4033 11.9045Z" fill="#224722"/>
<path d="M63.4513 13.0299C63.4513 13.8468 63.2121 14.516 62.7337 15.0411C62.2322 15.5808 61.5677 15.8499 60.7381 15.8499C59.9384 15.8499 59.3017 15.592 58.8267 15.0738C58.353 14.5566 58.1161 13.9043 58.1161 13.1178C58.1161 12.2954 58.36 11.6205 58.8499 11.0966C59.3398 10.5727 59.9985 10.3102 60.8282 10.3102C61.6278 10.3102 62.2704 10.5682 62.7568 11.0853C63.219 11.5878 63.4513 12.2368 63.4513 13.0299ZM62.1952 13.0683C62.1952 12.5782 62.0866 12.1579 61.8705 11.8075C61.6163 11.3839 61.2546 11.1721 60.7843 11.1721C60.2978 11.1721 59.928 11.3839 59.6738 11.8075C59.4565 12.1579 59.3491 12.5849 59.3491 13.0896C59.3491 13.5798 59.4577 14 59.6738 14.3504C59.9361 14.774 60.3013 14.9859 60.7728 14.9859C61.2349 14.9859 61.5978 14.7707 61.8589 14.3391C62.0832 13.982 62.1952 13.5583 62.1952 13.0683Z" fill="#224722"/>
<path d="M72.5288 10.4187L70.8244 15.7298H69.715L69.0089 13.4235C68.8299 12.8478 68.6843 12.2754 68.571 11.7076H68.5491C68.4439 12.2912 68.2983 12.8624 68.1111 13.4235L67.3612 15.7298H66.2391L64.6364 10.4187H65.8809L66.4968 12.9436C66.6459 13.5406 66.7684 14.1097 66.8665 14.6482H66.8886C66.9787 14.2043 67.1278 13.6387 67.338 12.9548L68.1111 10.4198H69.098L69.8387 12.9007C70.0177 13.5057 70.1633 14.0883 70.2755 14.6494H70.3089C70.391 14.1029 70.5147 13.5205 70.6788 12.9007L71.3398 10.4198H72.5288V10.4187Z" fill="#224722"/>
<path d="M78.8075 15.7294H77.5964V12.6875C77.5964 11.7501 77.2313 11.2814 76.4987 11.2814C76.1393 11.2814 75.8492 11.4098 75.624 11.6678C75.4009 11.9258 75.2877 12.23 75.2877 12.5782V15.7283H74.0766V11.936C74.0766 11.4695 74.0616 10.9637 74.0328 10.4161H75.097L75.1536 11.2465H75.1872C75.3281 10.9885 75.5384 10.7755 75.8146 10.6054C76.1427 10.4071 76.5102 10.3068 76.9123 10.3068C77.4208 10.3068 77.8438 10.4668 78.18 10.7879C78.5983 11.1811 78.8075 11.7681 78.8075 12.5478V15.7294Z" fill="#224722"/>
<path d="M82.147 15.7295H80.9371V7.98145H82.147V15.7295Z" fill="#224722"/>
<path d="M89.2755 13.0299C89.2755 13.8468 89.0362 14.516 88.5578 15.0411C88.0563 15.5808 87.3907 15.8499 86.5622 15.8499C85.7614 15.8499 85.1246 15.592 84.6508 15.0738C84.1771 14.5566 83.9402 13.9043 83.9402 13.1178C83.9402 12.2954 84.184 11.6205 84.6739 11.0966C85.164 10.5727 85.8227 10.3102 86.6512 10.3102C87.452 10.3102 88.0933 10.5682 88.5809 11.0853C89.0432 11.5878 89.2755 12.2368 89.2755 13.0299ZM88.0182 13.0683C88.0182 12.5782 87.9096 12.1579 87.6934 11.8075C87.4403 11.3839 87.0775 11.1721 86.6083 11.1721C86.1207 11.1721 85.751 11.3839 85.4979 11.8075C85.2806 12.1579 85.1731 12.5849 85.1731 13.0896C85.1731 13.5798 85.2818 14 85.4979 14.3504C85.7602 14.774 86.1254 14.9859 86.5968 14.9859C87.059 14.9859 87.4208 14.7707 87.6819 14.3391C87.9072 13.982 88.0182 13.5583 88.0182 13.0683Z" fill="#224722"/>
<path d="M95.1372 15.7295H94.0498L93.9597 15.1176H93.9262C93.5541 15.6055 93.0237 15.8499 92.335 15.8499C91.8207 15.8499 91.4047 15.6889 91.0916 15.3689C90.8074 15.0782 90.6652 14.7166 90.6652 14.2873C90.6652 13.6383 90.9426 13.1437 91.5007 12.8012C92.0577 12.4587 92.8412 12.2909 93.85 12.2987V12.1996C93.85 11.4999 93.4732 11.1507 92.7186 11.1507C92.1813 11.1507 91.7076 11.2825 91.2985 11.5439L91.0524 10.7687C91.5585 10.4634 92.1836 10.3102 92.9209 10.3102C94.3445 10.3102 95.0586 11.0425 95.0586 12.5072V14.463C95.0586 14.9937 95.0852 15.4162 95.1372 15.7295ZM93.8799 13.9043V13.0851C92.5442 13.0626 91.8762 13.4198 91.8762 14.1555C91.8762 14.4327 91.9525 14.6399 92.1085 14.7785C92.2645 14.9172 92.4633 14.9859 92.7002 14.9859C92.966 14.9859 93.2143 14.9035 93.4409 14.7402C93.6685 14.5757 93.8084 14.3673 93.8604 14.1115C93.873 14.0541 93.8799 13.9843 93.8799 13.9043Z" fill="#224722"/>
<path d="M102.018 15.7295H100.944L100.887 14.8766H100.853C100.51 15.5256 99.9255 15.8501 99.1039 15.8501C98.4475 15.8501 97.901 15.5988 97.4677 15.0964C97.0343 14.5938 96.8182 13.9415 96.8182 13.1404C96.8182 12.2808 97.0528 11.5845 97.5243 11.0527C97.9807 10.557 98.54 10.3091 99.2056 10.3091C99.9371 10.3091 100.449 10.5491 100.74 11.0302H100.763V7.98145H101.975V14.2987C101.975 14.8158 101.989 15.2924 102.018 15.7295ZM100.763 13.4897V12.6042C100.763 12.4509 100.752 12.327 100.73 12.2324C100.662 11.9484 100.515 11.7096 100.292 11.5169C100.066 11.3243 99.7949 11.2274 99.4818 11.2274C99.0299 11.2274 98.6763 11.402 98.4163 11.7524C98.1587 12.1028 98.028 12.5501 98.028 13.0965C98.028 13.6216 98.1517 14.0475 98.4002 14.3753C98.6624 14.7246 99.016 14.8992 99.4587 14.8992C99.8562 14.8992 100.174 14.7538 100.415 14.462C100.649 14.1927 100.763 13.8683 100.763 13.4897Z" fill="#224722"/>
<path d="M112.376 13.0299C112.376 13.8468 112.137 14.516 111.658 15.0411C111.157 15.5808 110.493 15.8499 109.662 15.8499C108.864 15.8499 108.227 15.592 107.751 15.0738C107.277 14.5566 107.041 13.9043 107.041 13.1178C107.041 12.2954 107.284 11.6205 107.774 11.0966C108.264 10.5727 108.923 10.3102 109.754 10.3102C110.552 10.3102 111.196 10.5682 111.681 11.0853C112.143 11.5878 112.376 12.2368 112.376 13.0299ZM111.121 13.0683C111.121 12.5782 111.012 12.1579 110.796 11.8075C110.541 11.3839 110.18 11.1721 109.709 11.1721C109.223 11.1721 108.854 11.3839 108.598 11.8075C108.381 12.1579 108.274 12.5849 108.274 13.0896C108.274 13.5798 108.382 14 108.598 14.3504C108.861 14.774 109.226 14.9859 109.697 14.9859C110.159 14.9859 110.523 14.7707 110.785 14.3391C111.008 13.982 111.121 13.5583 111.121 13.0683Z" fill="#224722"/>
<path d="M118.888 15.7294H117.678V12.6875C117.678 11.7501 117.313 11.2814 116.579 11.2814C116.22 11.2814 115.93 11.4098 115.705 11.6678C115.481 11.9258 115.369 12.23 115.369 12.5782V15.7283H114.157V11.936C114.157 11.4695 114.143 10.9637 114.114 10.4161H115.177L115.234 11.2465H115.268C115.41 10.9885 115.62 10.7755 115.895 10.6054C116.224 10.4071 116.591 10.3068 116.994 10.3068C117.501 10.3068 117.924 10.4668 118.26 10.7879C118.68 11.1811 118.888 11.7681 118.888 12.5478V15.7294Z" fill="#224722"/>
<path d="M127.038 11.3028H125.705V13.8828C125.705 14.5385 125.942 14.8664 126.411 14.8664C126.627 14.8664 126.808 14.8484 126.951 14.8113L126.982 15.7069C126.743 15.7948 126.428 15.8388 126.041 15.8388C125.563 15.8388 125.19 15.6968 124.921 15.4129C124.65 15.129 124.516 14.6512 124.516 13.9809V11.3028H123.72V10.4183H124.516V9.44491L125.704 9.09564V10.4172H127.037V11.3028H127.038Z" fill="#224722"/>
<path d="M133.448 15.7295H132.236V12.7101C132.236 11.758 131.871 11.2815 131.139 11.2815C130.578 11.2815 130.194 11.5575 129.984 12.1096C129.948 12.2256 129.927 12.3676 129.927 12.5343V15.7284H128.717V7.98145H129.927V11.1823H129.95C130.332 10.5998 130.878 10.3091 131.586 10.3091C132.089 10.3091 132.503 10.4691 132.833 10.7902C133.243 11.1902 133.448 11.7851 133.448 12.5715V15.7295Z" fill="#224722"/>
<path d="M140.062 12.8228C140.062 13.0346 140.046 13.2126 140.017 13.358H136.385C136.401 13.8829 136.574 14.283 136.911 14.5601C137.218 14.8079 137.614 14.9319 138.1 14.9319C138.637 14.9319 139.127 14.8485 139.568 14.6807L139.757 15.5009C139.241 15.7194 138.633 15.8287 137.93 15.8287C137.087 15.8287 136.422 15.5864 135.942 15.102C135.459 14.6175 135.219 13.9675 135.219 13.1517C135.219 12.3507 135.441 11.6837 135.892 11.1519C136.36 10.5841 136.995 10.3002 137.796 10.3002C138.579 10.3002 139.174 10.5841 139.577 11.1519C139.901 11.6026 140.062 12.1603 140.062 12.8228ZM138.907 12.5175C138.916 12.1671 138.836 11.8651 138.672 11.6105C138.461 11.2826 138.142 11.1181 137.708 11.1181C137.313 11.1181 136.99 11.2781 136.744 11.5992C136.543 11.855 136.424 12.1603 136.385 12.5175H138.907Z" fill="#224722"/>
</g>
<defs>
<clipPath id="clip0_1_23">
<rect width="156" height="45.8095" fill="white" transform="translate(0 0.595215)"/>
</clipPath>
</defs>
</svg>
