<svg width="126" height="37" viewBox="0 0 126 37" fill="none" xmlns="http://www.w3.org/2000/svg">
<g clip-path="url(#clip0_4_491)">
<path d="M121.333 0.729135C123.494 0.729135 125.252 2.44335 125.252 4.55V31.85C125.252 33.9567 123.494 35.6709 121.333 35.6709H4.66667C2.506 35.6709 0.747833 33.9567 0.747833 31.85V4.55C0.747833 2.44335 2.506 0.729135 4.66667 0.729135H121.333ZM121.333 0H4.66667C2.10117 0 0 2.04864 0 4.55V31.85C0 34.3514 2.10117 36.4 4.66667 36.4H121.333C123.899 36.4 126 34.3514 126 31.85V4.55C126 2.04864 123.899 0 121.333 0Z" fill="#E0FFC0"/>
<path d="M28.1201 18.0032C28.093 15.0703 30.5831 13.6434 30.697 13.577C29.2867 11.5723 27.1009 11.2984 26.3327 11.2765C24.4969 11.0881 22.7161 12.3476 21.7809 12.3476C20.827 12.3476 19.3869 11.2947 17.8347 11.3257C15.8374 11.3557 13.9689 12.4832 12.9441 14.234C10.8291 17.8039 12.4065 23.0501 14.4327 25.9357C15.4463 27.3489 16.6307 28.9269 18.181 28.8714C19.6977 28.8104 20.2642 27.9286 22.0945 27.9286C23.9079 27.9286 24.4399 28.8714 26.021 28.8359C27.6487 28.8104 28.6735 27.4163 29.6517 25.9903C30.823 24.3705 31.2934 22.7753 31.3121 22.6934C31.2738 22.6806 28.1509 21.5186 28.1201 18.0032Z" fill="#E0FFC0"/>
<path d="M25.1334 9.37822C25.9491 8.38359 26.5073 7.03042 26.3523 5.65723C25.1717 5.70819 23.6951 6.45348 22.8449 7.42627C22.0926 8.28349 21.4206 9.68853 21.5942 11.0099C22.9205 11.1064 24.2822 10.3574 25.1334 9.37822Z" fill="#E0FFC0"/>
<path d="M50.0684 28.6684H47.9488L46.7877 25.1112H42.752L41.646 28.6684H39.5824L43.5808 16.5581H46.0504L50.0684 28.6684ZM46.4377 23.6188L45.3877 20.4565C45.2767 20.1335 45.0685 19.3727 44.7615 18.1752H44.7241C44.6019 18.6902 44.4049 19.451 44.1343 20.4565L43.1029 23.6188H46.4377Z" fill="#E0FFC0"/>
<path d="M60.3508 24.1949C60.3508 25.68 59.9392 26.8539 59.116 27.7157C58.3786 28.4828 57.463 28.8659 56.3701 28.8659C55.1904 28.8659 54.3429 28.4528 53.8268 27.6265H53.7894V32.2266H51.7996V22.8108C51.7996 21.8771 51.7744 20.9189 51.7258 19.9361H53.4758L53.5869 21.3202H53.6242C54.2878 20.2774 55.2949 19.7568 56.6464 19.7568C57.7029 19.7568 58.5849 20.1636 59.2905 20.9781C59.998 21.7934 60.3508 22.8654 60.3508 24.1949ZM58.3236 24.2659C58.3236 23.4159 58.1276 22.7152 57.7337 22.1638C57.3034 21.5887 56.7257 21.3011 56.0014 21.3011C55.5105 21.3011 55.0644 21.4613 54.6658 21.777C54.2664 22.0955 54.005 22.5114 53.8828 23.0265C53.8212 23.2667 53.7904 23.4633 53.7904 23.618V25.074C53.7904 25.7091 53.9901 26.2451 54.3896 26.6828C54.789 27.1206 55.308 27.339 55.9464 27.339C56.6958 27.339 57.2792 27.0569 57.6964 26.4945C58.1145 25.9312 58.3236 25.1886 58.3236 24.2659Z" fill="#E0FFC0"/>
<path d="M70.6516 24.1949C70.6516 25.68 70.24 26.8539 69.4159 27.7157C68.6795 28.4828 67.7639 28.8659 66.6709 28.8659C65.4912 28.8659 64.6437 28.4528 64.1285 27.6265H64.0912V32.2266H62.1013V22.8108C62.1013 21.8771 62.0761 20.9189 62.0276 19.9361H63.7776L63.8887 21.3202H63.926C64.5887 20.2774 65.5957 19.7568 66.9481 19.7568C68.0037 19.7568 68.8857 20.1636 69.5932 20.9781C70.2979 21.7934 70.6516 22.8654 70.6516 24.1949ZM68.6244 24.2659C68.6244 23.4159 68.4275 22.7152 68.0336 22.1638C67.6033 21.5887 67.0275 21.3011 66.3023 21.3011C65.8104 21.3011 65.3652 21.4613 64.9657 21.777C64.5663 22.0955 64.3059 22.5114 64.1836 23.0265C64.1229 23.2667 64.0912 23.4633 64.0912 23.618V25.074C64.0912 25.7091 64.2909 26.2451 64.6885 26.6828C65.088 27.1196 65.6069 27.339 66.2472 27.339C66.9967 27.339 67.58 27.0569 67.9972 26.4945C68.4153 25.9312 68.6244 25.1886 68.6244 24.2659Z" fill="#E0FFC0"/>
<path d="M82.1691 25.2725C82.1691 26.3026 81.8023 27.1407 81.0659 27.7877C80.2567 28.4948 79.1302 28.8479 77.6826 28.8479C76.346 28.8479 75.2746 28.5967 74.4635 28.0935L74.9246 26.4764C75.7982 26.9915 76.7567 27.2499 77.8011 27.2499C78.5506 27.2499 79.1339 27.0843 79.553 26.7549C79.9702 26.4254 80.1783 25.9832 80.1783 25.4317C80.1783 24.9403 80.0066 24.5263 79.6622 24.1905C79.3196 23.8547 78.7475 23.5426 77.9486 23.2541C75.7739 22.4633 74.6875 21.3049 74.6875 19.7815C74.6875 18.786 75.0683 17.9697 75.8308 17.3345C76.5906 16.6984 77.6042 16.3809 78.8716 16.3809C80.0019 16.3809 80.9408 16.5729 81.6903 16.956L81.1928 18.5376C80.4928 18.1663 79.7014 17.9806 78.8156 17.9806C78.1156 17.9806 77.5687 18.149 77.1767 18.4839C76.8454 18.7833 76.6792 19.1482 76.6792 19.5804C76.6792 20.0591 76.8687 20.4549 77.2495 20.7661C77.5808 21.0537 78.1828 21.3649 79.0564 21.7007C80.1251 22.1202 80.91 22.6107 81.415 23.1731C81.918 23.7337 82.1691 24.4353 82.1691 25.2725Z" fill="#E0FFC0"/>
<path d="M88.7486 21.3921H86.5553V25.6318C86.5553 26.7101 86.9417 27.2488 87.7163 27.2488C88.0719 27.2488 88.3669 27.2188 88.6002 27.1587L88.6553 28.632C88.2633 28.7749 87.7471 28.8468 87.1078 28.8468C86.3219 28.8468 85.7078 28.6129 85.2645 28.1461C84.823 27.6783 84.6009 26.8939 84.6009 25.7919V21.3902H83.2942V19.9342H84.6009V18.3354L86.5553 17.7603V19.9342H88.7486V21.3921Z" fill="#E0FFC0"/>
<path d="M98.6441 24.2305C98.6441 25.5727 98.2502 26.6747 97.4644 27.5365C96.6402 28.4237 95.5464 28.866 94.1828 28.866C92.8686 28.866 91.8224 28.441 91.0421 27.5911C90.2618 26.7412 89.8717 25.6683 89.8717 24.3752C89.8717 23.022 90.273 21.9136 91.0785 21.0518C91.8821 20.1892 92.9666 19.7578 94.3302 19.7578C95.6444 19.7578 96.7018 20.1828 97.4998 21.0336C98.2633 21.859 98.6441 22.9246 98.6441 24.2305ZM96.5796 24.2933C96.5796 23.4879 96.4032 22.7972 96.0457 22.2212C95.6285 21.5241 95.0321 21.1765 94.2593 21.1765C93.4594 21.1765 92.8518 21.525 92.4346 22.2212C92.0772 22.7981 91.9008 23.4997 91.9008 24.3297C91.9008 25.135 92.0772 25.8257 92.4346 26.4008C92.8649 27.0979 93.466 27.4455 94.2416 27.4455C95.0013 27.4455 95.5977 27.0906 96.028 26.3826C96.3948 25.7957 96.5796 25.0977 96.5796 24.2933Z" fill="#E0FFC0"/>
<path d="M105.113 21.6424C104.916 21.6069 104.706 21.5887 104.486 21.5887C103.786 21.5887 103.244 21.8462 102.863 22.3622C102.532 22.8172 102.366 23.3923 102.366 24.0866V28.6685H100.377L100.396 22.6861C100.396 21.6797 100.371 20.7633 100.321 19.937H102.054L102.127 21.6078H102.182C102.392 21.0336 102.723 20.5713 103.177 20.2246C103.62 19.9124 104.099 19.7568 104.615 19.7568C104.799 19.7568 104.965 19.7696 105.113 19.7923V21.6424Z" fill="#E0FFC0"/>
<path d="M114.012 23.8894C114.012 24.237 113.988 24.53 113.939 24.7693H107.969C107.993 25.632 108.281 26.2918 108.836 26.7468C109.339 27.1535 109.989 27.3574 110.788 27.3574C111.672 27.3574 112.478 27.22 113.204 26.9442L113.515 28.291C112.668 28.6514 111.667 28.8307 110.513 28.8307C109.124 28.8307 108.034 28.4321 107.241 27.6358C106.449 26.8396 106.052 25.7703 106.052 24.429C106.052 23.1122 106.421 22.0157 107.159 21.1412C107.932 20.2075 108.976 19.7407 110.291 19.7407C111.581 19.7407 112.559 20.2075 113.222 21.1412C113.748 21.8828 114.012 22.8001 114.012 23.8894ZM112.114 23.3861C112.127 22.811 111.998 22.3142 111.728 21.8946C111.384 21.355 110.854 21.0857 110.142 21.0857C109.492 21.0857 108.963 21.3486 108.558 21.8764C108.227 22.296 108.03 22.7992 107.969 23.3852H112.114V23.3861Z" fill="#E0FFC0"/>
<path d="M45.7801 9.10831C45.7801 10.1793 45.4507 10.9856 44.7927 11.527C44.1832 12.0266 43.3171 12.2769 42.1952 12.2769C41.6389 12.2769 41.1629 12.2532 40.7644 12.2059V6.35374C41.2843 6.27184 41.8443 6.22998 42.4491 6.22998C43.5177 6.22998 44.3232 6.45657 44.8664 6.90975C45.4749 7.42208 45.7801 8.15463 45.7801 9.10831ZM44.7488 9.1347C44.7488 8.44037 44.5603 7.90802 44.1832 7.53674C43.8061 7.16637 43.2555 6.98073 42.5303 6.98073C42.2223 6.98073 41.96 7.00075 41.7425 7.04261V11.4916C41.8629 11.5098 42.0832 11.5179 42.4033 11.5179C43.1519 11.5179 43.7296 11.315 44.1365 10.9092C44.5435 10.5033 44.7488 9.91184 44.7488 9.1347Z" fill="#E0FFC0"/>
<path d="M51.2491 10.0434C51.2491 10.7032 51.0559 11.2437 50.6695 11.6678C50.2645 12.1037 49.7278 12.3211 49.0577 12.3211C48.4118 12.3211 47.8975 12.1128 47.5139 11.6942C47.1313 11.2765 46.9399 10.7496 46.9399 10.1144C46.9399 9.4501 47.1369 8.90501 47.5326 8.48186C47.9283 8.05871 48.4603 7.84668 49.1305 7.84668C49.7763 7.84668 50.2953 8.05507 50.6882 8.47276C51.0615 8.87862 51.2491 9.40278 51.2491 10.0434ZM50.2346 10.0744C50.2346 9.67851 50.1469 9.33908 49.9723 9.05607C49.767 8.71391 49.4749 8.54283 49.095 8.54283C48.7021 8.54283 48.4034 8.71391 48.1981 9.05607C48.0226 9.33908 47.9358 9.68397 47.9358 10.0916C47.9358 10.4875 48.0235 10.8269 48.1981 11.1099C48.4099 11.4521 48.7049 11.6232 49.0857 11.6232C49.459 11.6232 49.7521 11.4494 49.963 11.1008C50.1441 10.8124 50.2346 10.4702 50.2346 10.0744Z" fill="#E0FFC0"/>
<path d="M58.581 7.93457L57.2043 12.2243H56.3083L55.738 10.3615C55.5934 9.89653 55.4758 9.43425 55.3843 8.97561H55.3666C55.2816 9.44699 55.164 9.90836 55.0128 10.3615L54.4071 12.2243H53.5008L52.2063 7.93457H53.2115L53.709 9.97388C53.8294 10.4561 53.9283 10.9157 54.0076 11.3507H54.0254C54.0982 10.9921 54.2186 10.5353 54.3884 9.98298L55.0128 7.93548H55.8099L56.4082 9.9393C56.5528 10.4279 56.6704 10.8984 56.761 11.3516H56.788C56.8543 10.9102 56.9542 10.4398 57.0867 9.9393L57.6206 7.93548H58.581V7.93457Z" fill="#E0FFC0"/>
<path d="M63.6522 12.2236H62.674V9.76658C62.674 9.00946 62.3791 8.6309 61.7874 8.6309C61.4971 8.6309 61.2628 8.73464 61.0809 8.94303C60.9007 9.15142 60.8093 9.39712 60.8093 9.67831V12.2227H59.8311V9.15961C59.8311 8.78287 59.819 8.37428 59.7957 7.93202H60.6553L60.701 8.60269H60.7281C60.8419 8.3943 61.0118 8.22231 61.2349 8.0849C61.4999 7.92474 61.7967 7.84375 62.1215 7.84375C62.5322 7.84375 62.8738 7.97297 63.1454 8.23232C63.4832 8.54991 63.6522 9.02402 63.6522 9.65375V12.2236Z" fill="#E0FFC0"/>
<path d="M66.3495 12.2239H65.3723V5.96582H66.3495V12.2239Z" fill="#E0FFC0"/>
<path d="M72.1071 10.0434C72.1071 10.7032 71.9139 11.2437 71.5275 11.6678C71.1224 12.1037 70.5848 12.3211 69.9156 12.3211C69.2688 12.3211 68.7545 12.1128 68.3718 11.6942C67.9892 11.2765 67.7979 10.7496 67.7979 10.1144C67.7979 9.4501 67.9948 8.90501 68.3905 8.48186C68.7863 8.05871 69.3183 7.84668 69.9875 7.84668C70.6343 7.84668 71.1523 8.05507 71.5461 8.47276C71.9195 8.87862 72.1071 9.40278 72.1071 10.0434ZM71.0916 10.0744C71.0916 9.67851 71.0039 9.33908 70.8293 9.05607C70.6249 8.71391 70.3318 8.54283 69.9529 8.54283C69.559 8.54283 69.2604 8.71391 69.056 9.05607C68.8805 9.33908 68.7937 9.68397 68.7937 10.0916C68.7937 10.4875 68.8815 10.8269 69.056 11.1099C69.2679 11.4521 69.5628 11.6232 69.9436 11.6232C70.3169 11.6232 70.6091 11.4494 70.82 11.1008C71.002 10.8124 71.0916 10.4702 71.0916 10.0744Z" fill="#E0FFC0"/>
<path d="M76.8416 12.2238H75.9633L75.8905 11.7296H75.8635C75.5629 12.1237 75.1345 12.3211 74.5783 12.3211C74.1629 12.3211 73.8269 12.191 73.574 11.9326C73.3444 11.6978 73.2296 11.4057 73.2296 11.059C73.2296 10.5348 73.4536 10.1353 73.9044 9.85869C74.3543 9.58205 74.9871 9.44646 75.8019 9.45283V9.37275C75.8019 8.80764 75.4976 8.52554 74.8881 8.52554C74.4541 8.52554 74.0715 8.63201 73.7411 8.84313L73.5423 8.21705C73.9511 7.97044 74.456 7.84668 75.0515 7.84668C76.2013 7.84668 76.7781 8.43818 76.7781 9.62118V11.2009C76.7781 11.6295 76.7996 11.9708 76.8416 12.2238ZM75.8261 10.7496V10.088C74.7472 10.0698 74.2077 10.3583 74.2077 10.9525C74.2077 11.1764 74.2693 11.3438 74.3953 11.4557C74.5213 11.5677 74.6819 11.6232 74.8732 11.6232C75.0879 11.6232 75.2885 11.5567 75.4715 11.4248C75.6553 11.2919 75.7683 11.1236 75.8103 10.917C75.8205 10.8706 75.8261 10.8142 75.8261 10.7496Z" fill="#E0FFC0"/>
<path d="M82.3993 12.2239H81.5313L81.4856 11.535H81.4585C81.1813 12.0592 80.7091 12.3213 80.0455 12.3213C79.5153 12.3213 79.0739 12.1183 78.7239 11.7125C78.3739 11.3066 78.1993 10.7797 78.1993 10.1327C78.1993 9.43838 78.3888 8.876 78.7696 8.44648C79.1383 8.04608 79.59 7.84588 80.1276 7.84588C80.7184 7.84588 81.1319 8.03971 81.3671 8.42828H81.3857V5.96582H82.3648V11.0682C82.3648 11.4859 82.376 11.8708 82.3993 12.2239ZM81.3857 10.4148V9.69955C81.3857 9.57579 81.3764 9.47569 81.3587 9.39925C81.3036 9.16993 81.1851 8.97701 81.0049 8.8214C80.8229 8.66579 80.6036 8.58753 80.3507 8.58753C79.9857 8.58753 79.7001 8.72858 79.4901 9.01159C79.282 9.2946 79.1765 9.65587 79.1765 10.0972C79.1765 10.5213 79.2764 10.8653 79.4771 11.1301C79.6889 11.4122 79.9745 11.5532 80.332 11.5532C80.6531 11.5532 80.9097 11.4358 81.1048 11.2001C81.2933 10.9826 81.3857 10.7206 81.3857 10.4148Z" fill="#E0FFC0"/>
<path d="M90.765 10.0434C90.765 10.7032 90.5718 11.2437 90.1854 11.6678C89.7803 12.1037 89.2446 12.3211 88.5735 12.3211C87.9286 12.3211 87.4143 12.1128 87.0298 11.6942C86.6471 11.2765 86.4558 10.7496 86.4558 10.1144C86.4558 9.4501 86.6527 8.90501 87.0485 8.48186C87.4442 8.05871 87.9762 7.84668 88.6473 7.84668C89.2922 7.84668 89.8121 8.05507 90.2041 8.47276C90.5774 8.87862 90.765 9.40278 90.765 10.0434ZM89.7514 10.0744C89.7514 9.67851 89.6637 9.33908 89.4891 9.05607C89.2829 8.71391 88.9917 8.54283 88.6109 8.54283C88.2189 8.54283 87.9202 8.71391 87.7139 9.05607C87.5385 9.33908 87.4517 9.68397 87.4517 10.0916C87.4517 10.4875 87.5394 10.8269 87.7139 11.1099C87.9258 11.4521 88.2207 11.6232 88.6015 11.6232C88.9749 11.6232 89.2689 11.4494 89.4798 11.1008C89.6599 10.8124 89.7514 10.4702 89.7514 10.0744Z" fill="#E0FFC0"/>
<path d="M96.0248 12.2236H95.0476V9.76658C95.0476 9.00946 94.7527 8.6309 94.16 8.6309C93.8697 8.6309 93.6355 8.73464 93.4544 8.94303C93.2733 9.15142 93.1828 9.39712 93.1828 9.67831V12.2227H92.2037V9.15961C92.2037 8.78287 92.1925 8.37428 92.1692 7.93202H93.0279L93.0736 8.60269H93.1007C93.2155 8.3943 93.3853 8.22231 93.6075 8.0849C93.8735 7.92474 94.1693 7.84375 94.4951 7.84375C94.9048 7.84375 95.2464 7.97297 95.518 8.23232C95.8568 8.54991 96.0248 9.02402 96.0248 9.65375V12.2236Z" fill="#E0FFC0"/>
<path d="M102.608 8.64841H101.531V10.7323C101.531 11.2619 101.722 11.5267 102.101 11.5267C102.276 11.5267 102.422 11.5122 102.537 11.4822L102.562 12.2056C102.369 12.2766 102.115 12.3121 101.802 12.3121C101.416 12.3121 101.115 12.1974 100.898 11.9681C100.679 11.7388 100.571 11.3529 100.571 10.8115V8.64841H99.928V7.93406H100.571V7.14782L101.53 6.86572V7.93315H102.607V8.64841H102.608Z" fill="#E0FFC0"/>
<path d="M107.785 12.2239H106.806V9.78509C106.806 9.01614 106.511 8.63121 105.92 8.63121C105.467 8.63121 105.157 8.85416 104.987 9.30006C104.958 9.39379 104.941 9.50845 104.941 9.64313V12.223H103.964V5.96582H104.941V8.55113H104.96C105.268 8.08066 105.709 7.84588 106.281 7.84588C106.687 7.84588 107.022 7.9751 107.288 8.23445C107.619 8.5575 107.785 9.03798 107.785 9.67316V12.2239Z" fill="#E0FFC0"/>
<path d="M113.127 9.87587C113.127 10.047 113.114 10.1908 113.091 10.3082H110.157C110.17 10.7322 110.31 11.0553 110.582 11.2791C110.83 11.4793 111.15 11.5794 111.542 11.5794C111.976 11.5794 112.372 11.5121 112.728 11.3765L112.881 12.039C112.464 12.2155 111.973 12.3038 111.405 12.3038C110.724 12.3038 110.187 12.1081 109.799 11.7168C109.409 11.3255 109.215 10.8005 109.215 10.1416C109.215 9.49458 109.395 8.95586 109.759 8.52634C110.137 8.0677 110.65 7.83838 111.297 7.83838C111.929 7.83838 112.41 8.0677 112.735 8.52634C112.997 8.89034 113.127 9.34079 113.127 9.87587ZM112.194 9.62926C112.201 9.34625 112.137 9.10237 112.004 8.89671C111.834 8.6319 111.576 8.49904 111.226 8.49904C110.907 8.49904 110.646 8.62826 110.447 8.88761C110.285 9.09418 110.189 9.34079 110.157 9.62926H112.194Z" fill="#E0FFC0"/>
</g>
<defs>
<clipPath id="clip0_4_491">
<rect width="126" height="37" fill="white"/>
</clipPath>
</defs>
</svg>
