<svg width="18" height="22" viewBox="0 0 18 22" fill="none" xmlns="http://www.w3.org/2000/svg">
<path d="M9.14262 5.077C10.0856 5.077 11.2676 4.406 11.9726 3.51C12.6096 2.7 13.0746 1.566 13.0746 0.434C13.0746 0.28 13.0606 0.126 13.0346 0C11.9846 0.042 10.7236 0.741 9.96663 1.678C9.36863 2.392 8.82463 3.51 8.82463 4.658C8.82463 4.825 8.85063 4.993 8.86462 5.048C8.93062 5.063 9.03662 5.077 9.14262 5.077ZM5.82263 22C7.11063 22 7.68262 21.09 9.28862 21.09C10.9226 21.09 11.2816 21.972 12.7156 21.972C14.1236 21.972 15.0656 20.602 15.9556 19.259C16.9526 17.72 17.3636 16.209 17.3906 16.139C17.2976 16.112 14.6006 14.951 14.6006 11.692C14.6006 8.867 16.7266 7.594 16.8456 7.496C15.4386 5.371 13.2996 5.315 12.7156 5.315C11.1356 5.315 9.84663 6.322 9.03662 6.322C8.15963 6.322 7.00463 5.371 5.63663 5.371C3.03363 5.371 0.390625 7.636 0.390625 11.916C0.390625 14.573 1.37363 17.385 2.58162 19.203C3.61762 20.74 4.52163 22 5.82263 22Z" fill="#224722"/>
</svg>
