<svg width="126" height="37" viewBox="0 0 126 37" fill="none" xmlns="http://www.w3.org/2000/svg">
<g clip-path="url(#clip0_4_516)">
<path d="M121.167 0.729135C123.324 0.729135 125.08 2.44335 125.08 4.55V31.85C125.08 33.9567 123.324 35.6709 121.167 35.6709H4.66025C2.50256 35.6709 0.746805 33.9567 0.746805 31.85V4.55C0.746805 2.44335 2.50256 0.729135 4.66025 0.729135H121.167ZM121.167 0H4.66025C2.09828 0 0 2.04863 0 4.55V31.85C0 34.3514 2.09828 36.4 4.66025 36.4H121.167C123.729 36.4 125.827 34.3514 125.827 31.85V4.55C125.827 2.04863 123.729 0 121.167 0Z" fill="#E0FFC0"/>
<path d="M44.1952 9.32174C44.1952 10.0816 43.9622 10.6902 43.5032 11.1441C42.9754 11.6821 42.288 11.9528 41.4457 11.9528C40.6406 11.9528 39.9532 11.6775 39.3894 11.135C38.8243 10.5844 38.5424 9.90869 38.5424 9.09992C38.5424 8.29116 38.8243 7.61549 39.3894 7.06949C39.9532 6.52235 40.6406 6.24707 41.4457 6.24707C41.8465 6.24707 42.2286 6.32784 42.5933 6.47799C42.9568 6.62927 43.2527 6.83402 43.4671 7.08655L42.9801 7.56658C42.6061 7.13546 42.097 6.92275 41.4457 6.92275C40.8585 6.92275 40.3494 7.12295 39.9171 7.52676C39.4896 7.93171 39.2752 8.4561 39.2752 9.09992C39.2752 9.74375 39.4896 10.2727 39.9171 10.6777C40.3494 11.0769 40.8585 11.2817 41.4457 11.2817C42.069 11.2817 42.5933 11.0769 43.0069 10.6731C43.2795 10.4058 43.4345 10.0373 43.4752 9.5663H41.4457V8.90882H44.1533C44.1859 9.05101 44.1952 9.18865 44.1952 9.32174Z" fill="#E0FFC0"/>
<path d="M48.4912 7.04206H45.9479V8.77106H48.2408V9.42853H45.9479V11.1576H48.4912V11.8276H45.2279V6.37207H48.4912V7.04206Z" fill="#E0FFC0"/>
<path d="M51.522 11.8276H50.802V7.04206H49.2419V6.37207H53.0832V7.04206H51.522V11.8276Z" fill="#E0FFC0"/>
<path d="M55.8633 11.8276V6.37207H56.5821V11.8276H55.8633Z" fill="#E0FFC0"/>
<path d="M59.7689 11.8276H59.0547V7.04206H57.4889V6.37207H61.3348V7.04206H59.7689V11.8276Z" fill="#E0FFC0"/>
<path d="M68.607 11.1259C68.0559 11.6775 67.3732 11.9528 66.5588 11.9528C65.7398 11.9528 65.057 11.6775 64.506 11.1259C63.956 10.5753 63.6823 9.89959 63.6823 9.09992C63.6823 8.30026 63.956 7.62459 64.506 7.07404C65.057 6.52235 65.7398 6.24707 66.5588 6.24707C67.3685 6.24707 68.0512 6.52235 68.6023 7.07859C69.1569 7.63369 69.4307 8.30481 69.4307 9.09992C69.4307 9.89959 69.1569 10.5753 68.607 11.1259ZM65.0384 10.6686C65.4531 11.0769 65.9576 11.2817 66.5588 11.2817C67.1553 11.2817 67.6644 11.0769 68.0745 10.6686C68.4881 10.2602 68.6978 9.73579 68.6978 9.09992C68.6978 8.46406 68.4881 7.93967 68.0745 7.53131C67.6644 7.12295 67.1553 6.9182 66.5588 6.9182C65.9576 6.9182 65.4531 7.12295 65.0384 7.53131C64.6248 7.93967 64.4151 8.46406 64.4151 9.09992C64.4151 9.73579 64.6248 10.2602 65.0384 10.6686Z" fill="#E0FFC0"/>
<path d="M70.4402 11.8276V6.37207H71.314L74.0309 10.615H74.0624L74.0309 9.56617V6.37207H74.7498V11.8276H73.9995L71.1544 7.37535H71.1229L71.1544 8.42867V11.8276H70.4402Z" fill="#E0FFC0"/>
<path d="M63.505 19.7949C61.3158 19.7949 59.5275 21.4215 59.5275 23.6658C59.5275 25.8918 61.3158 27.5355 63.505 27.5355C65.6988 27.5355 67.4872 25.8918 67.4872 23.6658C67.4872 21.4215 65.6988 19.7949 63.505 19.7949ZM63.505 26.0113C62.3038 26.0113 61.2704 25.0433 61.2704 23.6658C61.2704 22.2701 62.3038 21.3191 63.505 21.3191C64.7062 21.3191 65.7442 22.2701 65.7442 23.6658C65.7442 25.0433 64.7062 26.0113 63.505 26.0113ZM54.8264 19.7949C52.6326 19.7949 50.8489 21.4215 50.8489 23.6658C50.8489 25.8918 52.6326 27.5355 54.8264 27.5355C57.0191 27.5355 58.804 25.8918 58.804 23.6658C58.804 21.4215 57.0191 19.7949 54.8264 19.7949ZM54.8264 26.0113C53.6241 26.0113 52.5872 25.0433 52.5872 23.6658C52.5872 22.2701 53.6241 21.3191 54.8264 21.3191C56.0276 21.3191 57.061 22.2701 57.061 23.6658C57.061 25.0433 56.0276 26.0113 54.8264 26.0113ZM44.4993 20.9813V22.6261H48.5223C48.4046 23.5452 48.09 24.2209 47.6077 24.6918C47.0205 25.2605 46.1059 25.8918 44.4993 25.8918C42.0236 25.8918 40.0849 23.941 40.0849 21.5239C40.0849 19.1067 42.0236 17.1559 44.4993 17.1559C45.838 17.1559 46.812 17.6666 47.5308 18.3286L48.718 17.1695C47.7126 16.2322 46.3751 15.5122 44.4993 15.5122C41.1043 15.5122 38.2511 18.2092 38.2511 21.5239C38.2511 24.8385 41.1043 27.5355 44.4993 27.5355C46.3343 27.5355 47.7126 26.9486 48.7961 25.8475C49.9064 24.7634 50.2524 23.2392 50.2524 22.0084C50.2524 21.6262 50.2198 21.2747 50.1615 20.9813H44.4993ZM86.7282 22.2564C86.4008 21.3908 85.3907 19.7949 83.3332 19.7949C81.2943 19.7949 79.5968 21.3635 79.5968 23.6658C79.5968 25.8338 81.2769 27.5355 83.5289 27.5355C85.3499 27.5355 86.4008 26.4515 86.833 25.8202L85.4816 24.9409C85.0307 25.5847 84.4167 26.0113 83.5289 26.0113C82.647 26.0113 82.0143 25.6166 81.6089 24.8385L86.9111 22.6966L86.7282 22.2564ZM81.3223 23.5452C81.2769 22.0528 82.5095 21.2884 83.3926 21.2884C84.0847 21.2884 84.6719 21.6262 84.8676 22.1097L81.3223 23.5452ZM77.0127 27.3001H78.7557V15.9251H77.0127V27.3001ZM74.1583 20.6571H74.1001C73.7086 20.2044 72.9618 19.7949 72.0158 19.7949C70.0305 19.7949 68.2153 21.4966 68.2153 23.6783C68.2153 25.8475 70.0305 27.5355 72.0158 27.5355C72.9618 27.5355 73.7086 27.1226 74.1001 26.6562H74.1583V27.2113C74.1583 28.6912 73.3486 29.4863 72.0426 29.4863C70.9777 29.4863 70.3171 28.7356 70.0445 28.1043L68.5287 28.7219C68.9656 29.748 70.1225 31.0106 72.0426 31.0106C74.0861 31.0106 75.8104 29.8367 75.8104 26.9804V20.0303H74.1583V20.6571ZM72.1649 26.0113C70.9637 26.0113 69.9583 25.0296 69.9583 23.6783C69.9583 22.3144 70.9637 21.3191 72.1649 21.3191C73.3486 21.3191 74.2818 22.3144 74.2818 23.6783C74.2818 25.0296 73.3486 26.0113 72.1649 26.0113ZM94.8883 15.9251H90.7197V27.3001H92.458V22.9901H94.8883C96.8188 22.9901 98.712 21.6262 98.712 19.457C98.712 17.2889 96.8141 15.9251 94.8883 15.9251ZM94.9337 21.4078H92.458V17.5073H94.9337C96.2316 17.5073 96.9726 18.5595 96.9726 19.457C96.9726 20.3374 96.2316 21.4078 94.9337 21.4078ZM105.679 19.7732C104.423 19.7732 103.117 20.3147 102.58 21.5147L104.123 22.1461C104.455 21.5147 105.065 21.31 105.711 21.31C106.612 21.31 107.527 21.8389 107.541 22.7728V22.8923C107.226 22.7148 106.553 22.4521 105.725 22.4521C104.063 22.4521 102.37 23.345 102.37 25.0114C102.37 26.5357 103.731 27.5173 105.261 27.5173C106.431 27.5173 107.076 27.002 107.481 26.4026H107.541V27.2819H109.22V22.9184C109.22 20.9016 107.677 19.7732 105.679 19.7732ZM105.469 26.0067C104.901 26.0067 104.109 25.7315 104.109 25.0433C104.109 24.1629 105.097 23.825 105.952 23.825C106.717 23.825 107.076 23.9899 107.541 24.2072C107.405 25.2605 106.476 26.0067 105.469 26.0067ZM115.336 20.0223L113.338 24.9534H113.279L111.213 20.0223H109.339L112.442 26.9133L110.671 30.7478H112.488L117.27 20.0223H115.336ZM99.6674 27.3001H101.41V15.9251H99.6674V27.3001Z" fill="#E0FFC0"/>
<path d="M9.72643 6.8604C9.45264 7.14023 9.29419 7.57589 9.29419 8.14009V28.2647C9.29419 28.8289 9.45264 29.2646 9.72643 29.5444L9.794 29.6058L21.3444 18.3332V18.067L9.794 6.79443L9.72643 6.8604Z" fill="#E0FFC0"/>
<path d="M25.1904 22.0926L21.3445 18.3332V18.067L25.195 14.3076L25.2812 14.3565L29.8413 16.8897C31.1427 17.6086 31.1427 18.7916 29.8413 19.5151L25.2812 22.0437L25.1904 22.0926Z" fill="#E0FFC0"/>
<path d="M25.281 22.0438L21.3442 18.2002L9.7262 29.5445C10.1584 29.9881 10.8633 30.0416 11.6649 29.5979L25.281 22.0438Z" fill="#E0FFC0"/>
<path d="M25.281 14.3564L11.6649 6.80234C10.8633 6.36327 10.1584 6.41673 9.7262 6.86035L21.3442 18.2001L25.281 14.3564Z" fill="#E0FFC0"/>
</g>
<defs>
<clipPath id="clip0_4_516">
<rect width="126" height="37" fill="white"/>
</clipPath>
</defs>
</svg>
