<svg width="156" height="47" viewBox="0 0 156 47" fill="none" xmlns="http://www.w3.org/2000/svg">
<g clip-path="url(#clip0_1_50)">
<path d="M150.016 1.49783C152.687 1.49783 154.861 3.6202 154.861 6.22843V40.0284C154.861 42.6367 152.687 44.7591 150.016 44.7591H5.76983C3.09841 44.7591 0.924616 42.6367 0.924616 40.0284V6.22843C0.924616 3.6202 3.09841 1.49783 5.76983 1.49783H150.016ZM150.016 0.595093H5.76983C2.59787 0.595093 0 3.1315 0 6.22843V40.0284C0 43.1254 2.59787 45.6617 5.76983 45.6617H150.016C153.188 45.6617 155.786 43.1254 155.786 40.0284V6.22843C155.786 3.1315 153.188 0.595093 150.016 0.595093Z" fill="#224722"/>
<path d="M54.7179 12.1367C54.7179 13.0774 54.4294 13.8309 53.8611 14.3929C53.2077 15.059 52.3566 15.3941 51.3137 15.3941C50.317 15.3941 49.4659 15.0533 48.7678 14.3816C48.0682 13.6999 47.7192 12.8634 47.7192 11.8621C47.7192 10.8607 48.0682 10.0242 48.7678 9.34819C49.4659 8.67078 50.317 8.32996 51.3137 8.32996C51.81 8.32996 52.283 8.42996 52.7346 8.61586C53.1846 8.80316 53.551 9.05666 53.8164 9.36931L53.2135 9.96364C52.7504 9.42987 52.1201 9.16651 51.3137 9.16651C50.5867 9.16651 49.9564 9.41438 49.4212 9.91433C48.8919 10.4157 48.6265 11.0649 48.6265 11.8621C48.6265 12.6592 48.8919 13.314 49.4212 13.8154C49.9564 14.3097 50.5867 14.5633 51.3137 14.5633C52.0854 14.5633 52.7346 14.3097 53.2467 13.8098C53.5842 13.4788 53.7761 13.0226 53.8265 12.4395H51.3137V11.6255H54.666C54.7064 11.8015 54.7179 11.9719 54.7179 12.1367Z" fill="#224722"/>
<path d="M60.0367 9.31425H56.8879V11.4549H59.7267V12.2689H56.8879V14.4096H60.0367V15.2392H55.9965V8.48474H60.0367V9.31425Z" fill="#224722"/>
<path d="M63.7891 15.2392H62.8977V9.31425H60.9662V8.48474H65.722V9.31425H63.7891V15.2392Z" fill="#224722"/>
<path d="M69.1641 15.2392V8.48474H70.054V15.2392H69.1641Z" fill="#224722"/>
<path d="M73.9996 15.2392H73.1153V9.31425H71.1767V8.48474H75.9383V9.31425H73.9996V15.2392Z" fill="#224722"/>
<path d="M84.942 14.3704C84.2597 15.0533 83.4144 15.3941 82.4061 15.3941C81.3921 15.3941 80.5468 15.0533 79.8646 14.3704C79.1836 13.6887 78.8448 12.8521 78.8448 11.8621C78.8448 10.872 79.1836 10.0355 79.8646 9.35382C80.5468 8.67078 81.3921 8.32996 82.4061 8.32996C83.4086 8.32996 84.2539 8.67078 84.9362 9.35946C85.6228 10.0467 85.9618 10.8776 85.9618 11.8621C85.9618 12.8521 85.6228 13.6887 84.942 14.3704ZM80.5237 13.8042C81.0372 14.3097 81.6618 14.5633 82.4061 14.5633C83.1447 14.5633 83.775 14.3097 84.2827 13.8042C84.7948 13.2985 85.0544 12.6493 85.0544 11.8621C85.0544 11.0748 84.7948 10.4256 84.2827 9.91997C83.775 9.41438 83.1447 9.16088 82.4061 9.16088C81.6618 9.16088 81.0372 9.41438 80.5237 9.91997C80.0117 10.4256 79.752 11.0748 79.752 11.8621C79.752 12.6493 80.0117 13.2985 80.5237 13.8042Z" fill="#224722"/>
<path d="M87.2117 15.2392V8.48474H88.2935L91.6573 13.7378H91.6963L91.6573 12.4393V8.48474H92.5474V15.2392H91.6184L88.0959 9.7269H88.0569L88.0959 11.031V15.2392H87.2117Z" fill="#224722"/>
<path d="M78.6252 25.103C75.9148 25.103 73.7007 27.1169 73.7007 29.8956C73.7007 32.6516 75.9148 34.6867 78.6252 34.6867C81.3414 34.6867 83.5556 32.6516 83.5556 29.8956C83.5556 27.1169 81.3414 25.103 78.6252 25.103ZM78.6252 32.7995C77.138 32.7995 75.8586 31.6011 75.8586 29.8956C75.8586 28.1676 77.138 26.9902 78.6252 26.9902C80.1124 26.9902 81.3976 28.1676 81.3976 29.8956C81.3976 31.6011 80.1124 32.7995 78.6252 32.7995ZM67.8803 25.103C65.1642 25.103 62.9558 27.1169 62.9558 29.8956C62.9558 32.6516 65.1642 34.6867 67.8803 34.6867C70.5951 34.6867 72.8049 32.6516 72.8049 29.8956C72.8049 27.1169 70.5951 25.103 67.8803 25.103ZM67.8803 32.7995C66.3917 32.7995 65.108 31.6011 65.108 29.8956C65.108 28.1676 66.3917 26.9902 67.8803 26.9902C69.3675 26.9902 70.6469 28.1676 70.6469 29.8956C70.6469 31.6011 69.3675 32.7995 67.8803 32.7995ZM55.0944 26.5719V28.6083H60.0752C59.9295 29.7463 59.54 30.5829 58.9429 31.1659C58.2158 31.87 57.0835 32.6516 55.0944 32.6516C52.0292 32.6516 49.6289 30.2363 49.6289 27.2437C49.6289 24.251 52.0292 21.8357 55.0944 21.8357C56.7518 21.8357 57.9577 22.468 58.8476 23.2876L60.3175 21.8526C59.0727 20.6921 57.4168 19.8007 55.0944 19.8007C50.891 19.8007 47.3585 23.1398 47.3585 27.2437C47.3585 31.3475 50.891 34.6867 55.0944 34.6867C57.3663 34.6867 59.0727 33.96 60.4142 32.5967C61.7889 31.2545 62.2172 29.3674 62.2172 27.8436C62.2172 27.3704 62.1769 26.9352 62.1047 26.5719H55.0944ZM107.378 28.1506C106.972 27.0789 105.722 25.103 103.174 25.103C100.65 25.103 98.5484 27.0451 98.5484 29.8956C98.5484 32.5798 100.629 34.6867 103.417 34.6867C105.671 34.6867 106.972 33.3446 107.508 32.5629L105.834 31.4743C105.276 32.2714 104.516 32.7995 103.417 32.7995C102.325 32.7995 101.542 32.3109 101.04 31.3475L107.604 28.6956L107.378 28.1506ZM100.685 29.7463C100.629 27.8985 102.155 26.9521 103.248 26.9521C104.105 26.9521 104.832 27.3704 105.074 27.969L100.685 29.7463ZM95.349 34.3952H97.507V20.3119H95.349V34.3952ZM91.815 26.1705H91.743C91.2583 25.61 90.3336 25.103 89.1624 25.103C86.7044 25.103 84.457 27.2099 84.457 29.9111C84.457 32.5967 86.7044 34.6867 89.1624 34.6867C90.3336 34.6867 91.2583 34.1754 91.743 33.598H91.815V34.2853C91.815 36.1175 90.8125 37.1019 89.1956 37.1019C87.8771 37.1019 87.0593 36.1725 86.7218 35.3909L84.845 36.1555C85.386 37.4259 86.8183 38.9892 89.1956 38.9892C91.7256 38.9892 93.8605 37.5358 93.8605 33.9994V25.3945H91.815V26.1705ZM89.347 32.7995C87.8598 32.7995 86.615 31.5841 86.615 29.9111C86.615 28.2224 87.8598 26.9902 89.347 26.9902C90.8125 26.9902 91.9679 28.2224 91.9679 29.9111C91.9679 31.5841 90.8125 32.7995 89.347 32.7995ZM117.481 20.3119H112.32V34.3952H114.472V29.059H117.481C119.871 29.059 122.215 27.3704 122.215 24.6847C122.215 22.0004 119.865 20.3119 117.481 20.3119ZM117.537 27.1H114.472V22.2708H117.537C119.144 22.2708 120.061 23.5735 120.061 24.6847C120.061 25.7747 119.144 27.1 117.537 27.1ZM130.841 25.0762C129.286 25.0762 127.669 25.7466 127.004 27.2323L128.914 28.0141C129.325 27.2323 130.08 26.9789 130.88 26.9789C131.996 26.9789 133.129 27.6337 133.146 28.79V28.9379C132.756 28.7182 131.923 28.3929 130.898 28.3929C128.84 28.3929 126.744 29.4984 126.744 31.5616C126.744 33.4488 128.429 34.6641 130.323 34.6641C131.772 34.6641 132.57 34.0261 133.072 33.284H133.146V34.3727H135.225V28.9702C135.225 26.4733 133.314 25.0762 130.841 25.0762ZM130.581 32.7938C129.877 32.7938 128.897 32.4531 128.897 31.6011C128.897 30.511 130.12 30.0927 131.179 30.0927C132.126 30.0927 132.57 30.2969 133.146 30.5659C132.978 31.87 131.827 32.7938 130.581 32.7938ZM142.797 25.3846L140.323 31.4898H140.25L137.692 25.3846H135.372L139.214 33.9163L137.021 38.6638H139.271L145.191 25.3846H142.797ZM123.398 34.3952H125.555V20.3119H123.398V34.3952Z" fill="#224722"/>
<path d="M12.0422 9.08888C11.7033 9.43534 11.5071 9.97472 11.5071 10.6733V35.5895C11.5071 36.288 11.7033 36.8275 12.0422 37.1739L12.1259 37.2499L26.4264 23.2933V22.9638L12.1259 9.0072L12.0422 9.08888Z" fill="#224722"/>
<path d="M31.1881 27.9478L26.4265 23.2933V22.9638L31.1938 18.3093L31.3005 18.3698L36.9464 21.5062C38.5576 22.3962 38.5576 23.8609 36.9464 24.7566L31.3005 27.8873L31.1881 27.9478Z" fill="#224722"/>
<path d="M31.3003 27.8874L26.4262 23.1287L12.042 37.174C12.5771 37.7232 13.4498 37.7894 14.4423 37.2401L31.3003 27.8874Z" fill="#224722"/>
<path d="M31.3003 18.3697L14.4423 9.01696C13.4498 8.47335 12.5771 8.53954 12.042 9.08878L26.4262 23.1285L31.3003 18.3697Z" fill="#224722"/>
</g>
<defs>
<clipPath id="clip0_1_50">
<rect width="156" height="45.8095" fill="white" transform="translate(0 0.595215)"/>
</clipPath>
</defs>
</svg>
