<svg width="36" height="36" viewBox="0 0 36 36" fill="none" xmlns="http://www.w3.org/2000/svg">
<g clip-path="url(#clip0_4_488)">
<path d="M28.8 0H7.2C3.22355 0 0 3.22355 0 7.2V28.8C0 32.7765 3.22355 36 7.2 36H28.8C32.7765 36 36 32.7765 36 28.8V7.2C36 3.22355 32.7765 0 28.8 0Z" fill="#C4DEA9"/>
<path d="M24.244 10.3344C22.9595 9.21039 21.2576 8.64307 19.1382 8.64307H12.1912V27.5359H12.8548C14.4069 27.5359 15.6593 26.2728 15.6593 24.7314V20.8351V17.9557V11.5225H18.8598C20.0694 11.5225 21.0221 11.7901 21.6964 12.3146C22.3815 12.8498 22.7133 13.6312 22.7133 14.691C22.7133 15.74 22.3601 16.5535 21.6536 17.1101C20.9472 17.6667 19.9945 17.9557 18.7849 17.9557C17.5968 17.9557 16.6334 18.9191 16.6334 20.1073V20.8351H19.0739C20.3905 20.8351 21.5894 20.5675 22.6812 20.0216C23.7731 19.4864 24.6187 18.7371 25.2502 17.7952C25.8711 16.8532 26.1815 15.7935 26.1815 14.6374C26.1708 12.8927 25.5285 11.4583 24.244 10.3344Z" fill="#224722"/>
</g>
<defs>
<clipPath id="clip0_4_488">
<rect width="36" height="36" fill="white"/>
</clipPath>
</defs>
</svg>
