<svg width="106" height="29" viewBox="0 0 106 29" fill="none" xmlns="http://www.w3.org/2000/svg">
<path d="M23.6036 0H28.6303V28.4044H23.6036V0ZM32.2399 13.7593C32.3866 12.8613 32.6864 11.9956 33.126 11.2005C33.5801 10.3585 34.1618 9.59312 34.8503 8.93199C35.5594 8.23964 36.4605 7.67629 37.5567 7.27419C38.6528 6.85596 39.861 6.66246 41.1822 6.66246C42.8255 6.66246 44.2597 6.88821 45.4519 7.35481C46.644 7.80529 47.5782 8.46539 48.2553 9.30185C48.9203 10.1243 49.4185 11.0704 49.7215 12.0864C50.0275 13.1163 50.1726 14.2591 50.1726 15.53V23.3997C50.1726 25.4274 50.2856 27.1013 50.5266 28.4205H45.4999C45.3868 27.7282 45.3398 26.9562 45.3398 26.0875V25.0737H45.3068C44.0987 27.6969 41.8753 29 38.6358 29C36.3655 29 34.5602 28.3883 33.239 27.181C31.9188 25.9585 31.2577 24.4619 31.2577 22.659C31.2577 21.9193 31.3697 21.227 31.6118 20.5991C31.8538 19.9713 32.1438 19.4563 32.5139 19.0219C32.9112 18.5675 33.3794 18.1815 33.9001 17.8791C34.4119 17.5631 34.9508 17.2939 35.5104 17.0749C36.0104 16.8814 36.6065 16.6889 37.2996 16.5277C37.9917 16.3664 38.5558 16.2384 39.0069 16.1739C39.458 16.0933 39.99 16.0288 40.5861 15.9482C40.9242 15.9159 41.1662 15.8676 41.3112 15.8524C42.7615 15.6428 43.7916 15.3526 44.3887 14.9827C44.9848 14.6129 45.2908 14.0173 45.2908 13.1647C45.2908 12.3282 44.9358 11.6681 44.2277 11.1844C43.5176 10.7017 42.5354 10.4608 41.2792 10.4608C40.1831 10.4608 39.2649 10.75 38.4918 11.3456C37.7177 11.9412 37.2186 12.7465 36.9446 13.7764H32.2399V13.7593ZM37.2186 20.4862C36.5255 20.97 36.1875 21.6291 36.1875 22.4504C36.1875 23.2707 36.5255 23.947 37.1866 24.4619C37.8467 24.9759 38.7819 25.2339 39.957 25.2339C40.6831 25.2339 41.3592 25.121 41.9873 24.8802C42.626 24.6389 43.2078 24.2662 43.6956 23.7857C44.2117 23.2869 44.6137 22.5945 44.9198 21.7258C45.2098 20.841 45.3548 19.811 45.3548 18.6198V16.6728C45.0808 17.2845 44.5647 17.8156 43.8406 18.25C43.1155 18.6843 41.9713 19.0542 40.4401 19.3605C38.9909 19.6175 37.9117 20.0035 37.2186 20.4862ZM53.282 28.4044V7.29132H58.1958V10.9758C59.517 8.1439 61.6273 6.72696 64.5277 6.72696C67.1381 6.72696 69.0554 7.49993 70.2796 9.04486C71.5038 10.5898 72.1329 12.682 72.1329 15.3375V28.3883H67.1861V16.4632C67.1861 12.8422 65.8659 11.0403 63.2385 11.0403C61.7403 11.0403 60.5641 11.7004 59.662 13.0034C58.7759 14.3075 58.3248 16.2384 58.3248 18.7478V28.3722H53.282V28.4044ZM81.2363 20.8087C81.2363 22.0634 81.4293 22.9966 81.8324 23.5922C82.2194 24.1868 82.9445 24.4771 83.9757 24.4771H85.3289V28.485H82.9115C81.6873 28.5001 80.6402 28.3399 79.77 28.0013C78.8999 27.6637 78.2238 27.1809 77.7237 26.5209C77.2182 25.8644 76.856 25.1079 76.6606 24.3007C76.4345 23.4794 76.3385 22.53 76.3385 21.4517V11.136H73.8571V7.29031H76.3375V1.39981H81.2523V7.29031H85.4249V11.136H81.2523V20.8087H81.2363ZM87.7132 13.7593C87.8597 12.8613 88.1591 11.9956 88.5984 11.2005C89.0525 10.3585 89.6342 9.59315 90.3226 8.93199C91.0317 8.23964 91.9339 7.67629 93.03 7.27419C94.1252 6.85596 95.3334 6.66246 96.6546 6.66246C98.2978 6.66246 99.732 6.88821 100.924 7.35481C102.116 7.80529 103.052 8.46539 103.728 9.30185C104.393 10.1242 104.891 11.0703 105.194 12.0864C105.5 13.1163 105.645 14.2591 105.645 15.53V23.3997C105.645 25.4274 105.758 27.1013 106 28.4205H100.973C100.86 27.7282 100.811 26.9562 100.811 26.0875V25.0737H100.779C99.571 27.6969 97.3477 29 94.1082 29C91.8379 29 90.0326 28.3883 88.7114 27.181C87.3912 25.9585 86.7301 24.4619 86.7301 22.659C86.7301 21.9193 86.8431 21.227 87.0841 20.5991C87.3262 19.9713 87.6162 19.4563 87.9863 19.0219C88.3835 18.5675 88.8518 18.1815 89.3725 17.8791C89.8843 17.5631 90.4232 17.294 90.9827 17.0749C91.4828 16.8814 92.0789 16.6889 92.772 16.5277C93.4651 16.3664 94.0282 16.2384 94.4793 16.1739C94.9303 16.0933 95.4624 16.0288 96.0595 15.9482C96.3965 15.9159 96.6396 15.8676 96.7836 15.8524C98.2338 15.6428 99.264 15.3526 99.8611 14.9827C100.457 14.6129 100.763 14.0173 100.763 13.1647C100.763 12.3282 100.409 11.6681 99.7 11.1844C98.9909 10.7017 98.0078 10.4608 96.7516 10.4608C95.6554 10.4608 94.7373 10.75 93.9642 11.3456C93.1911 11.9412 92.691 12.7465 92.4169 13.7764H87.7132V13.7593ZM92.691 20.4862C91.9989 20.97 91.6608 21.6291 91.6608 22.4504C91.6608 23.2707 91.9989 23.947 92.659 24.4619C93.3191 24.9759 94.2542 25.2339 95.4294 25.2339C96.1555 25.2339 96.8316 25.121 97.4597 24.8802C98.0984 24.6389 98.6802 24.2661 99.168 23.7857C99.684 23.2869 100.087 22.5945 100.393 21.7258C100.683 20.841 100.828 19.811 100.828 18.6198V16.6728C100.554 17.2845 100.038 17.8156 99.313 18.25C98.5879 18.6843 97.4447 19.0542 95.9135 19.3605C94.4473 19.6175 93.3681 20.0035 92.691 20.4862ZM18.1427 2.54264C16.2074 0.852585 13.6461 0 10.4556 0H0V28.4044H0.999151C3.3355 28.4044 5.21979 26.5057 5.21979 24.1878V4.32944H10.0375C11.8578 4.32944 13.292 4.73155 14.3082 5.51963C15.3383 6.32485 15.8384 7.49892 15.8384 9.09223C15.8384 10.6694 15.3063 11.8929 14.2431 12.7303C13.18 13.5668 11.7458 14.0001 9.9245 14.0001C8.13623 14.0001 6.68601 15.4493 6.68601 17.2351V18.3296H10.3596C12.3419 18.3296 14.1461 17.9275 15.7904 17.1071C17.4326 16.3019 18.7058 15.1752 19.657 13.7593C20.5911 12.3433 21.0582 10.75 21.0582 9.01261C21.0422 6.38935 20.075 4.23269 18.1417 2.54264H18.1427Z" fill="#224722"/>
</svg>
