<svg width="106" height="29" viewBox="0 0 106 29" fill="none" xmlns="http://www.w3.org/2000/svg">
<g clip-path="url(#clip0_4_437)">
<mask id="mask0_4_437" style="mask-type:luminance" maskUnits="userSpaceOnUse" x="0" y="0" width="106" height="29">
<path d="M0 0H106V28.76H0V0Z" fill="white"/>
</mask>
<g mask="url(#mask0_4_437)">
<path d="M23.6 0H28.626V28.185H23.6V0ZM32.235 13.653C32.3817 12.7619 32.6815 11.9029 33.121 11.114C33.575 10.2785 34.1567 9.51902 34.845 8.863C35.554 8.176 36.455 7.617 37.551 7.218C38.647 6.803 39.855 6.611 41.176 6.611C42.819 6.611 44.253 6.835 45.445 7.298C46.637 7.745 47.571 8.4 48.248 9.23C48.9129 10.0461 49.411 10.9849 49.714 11.993C50.02 13.015 50.165 14.149 50.165 15.41V23.219C50.165 25.231 50.278 26.892 50.519 28.201H45.493C45.38 27.514 45.333 26.748 45.333 25.886V24.88H45.3C44.092 27.483 41.869 28.776 38.63 28.776C36.36 28.776 34.555 28.169 33.234 26.971C31.914 25.758 31.253 24.273 31.253 22.484C31.253 21.75 31.365 21.063 31.607 20.44C31.849 19.817 32.139 19.306 32.509 18.875C32.9062 18.4241 33.3744 18.041 33.895 17.741C34.4067 17.4274 34.9456 17.1603 35.505 16.943C36.005 16.751 36.601 16.56 37.294 16.4C37.986 16.24 38.55 16.113 39.001 16.049C39.452 15.969 39.984 15.905 40.58 15.825C40.918 15.793 41.16 15.745 41.305 15.73C42.755 15.522 43.785 15.234 44.382 14.867C44.978 14.5 45.284 13.909 45.284 13.063C45.284 12.233 44.929 11.578 44.221 11.098C43.511 10.619 42.529 10.38 41.273 10.38C40.177 10.38 39.259 10.667 38.486 11.258C37.712 11.849 37.213 12.648 36.939 13.67H32.235V13.653ZM37.213 20.328C36.52 20.808 36.182 21.462 36.182 22.277C36.182 23.091 36.52 23.762 37.181 24.273C37.841 24.783 38.776 25.039 39.951 25.039C40.677 25.039 41.353 24.927 41.981 24.688C42.6196 24.4486 43.2013 24.0787 43.689 23.602C44.205 23.107 44.607 22.42 44.913 21.558C45.203 20.68 45.348 19.658 45.348 18.476V16.544C45.074 17.151 44.558 17.678 43.834 18.109C43.109 18.54 41.965 18.907 40.434 19.211C38.985 19.466 37.906 19.849 37.213 20.328ZM53.274 28.185V7.235H58.187V10.891C59.508 8.081 61.618 6.675 64.518 6.675C67.128 6.675 69.045 7.442 70.269 8.975C71.493 10.508 72.122 12.584 72.122 15.219V28.169H67.176V16.336C67.176 12.743 65.856 10.955 63.229 10.955C61.731 10.955 60.555 11.61 59.653 12.903C58.767 14.197 58.316 16.113 58.316 18.603V28.153H53.274V28.185ZM81.224 20.648C81.224 21.893 81.417 22.819 81.82 23.41C82.207 24 82.932 24.288 83.963 24.288H85.316V28.265H82.899C81.675 28.28 80.628 28.121 79.758 27.785C78.888 27.45 78.212 26.971 77.712 26.316C77.2066 25.6646 76.8444 24.914 76.649 24.113C76.423 23.298 76.327 22.356 76.327 21.286V11.05H73.846V7.234H76.326V1.389H81.24V7.234H85.412V11.05H81.24V20.648H81.224ZM87.7 13.653C87.8464 12.762 88.1458 11.903 88.585 11.114C89.039 10.2785 89.6207 9.51906 90.309 8.863C91.018 8.176 91.92 7.617 93.016 7.218C94.111 6.803 95.319 6.611 96.64 6.611C98.283 6.611 99.717 6.835 100.909 7.298C102.101 7.745 103.036 8.4 103.712 9.23C104.377 10.046 104.875 10.9848 105.178 11.993C105.484 13.015 105.629 14.149 105.629 15.41V23.219C105.629 25.231 105.742 26.892 105.984 28.201H100.958C100.845 27.514 100.796 26.748 100.796 25.886V24.88H100.764C99.556 27.483 97.333 28.776 94.094 28.776C91.824 28.776 90.019 28.169 88.698 26.971C87.378 25.758 86.717 24.273 86.717 22.484C86.717 21.75 86.83 21.063 87.071 20.44C87.313 19.817 87.603 19.306 87.973 18.875C88.3702 18.4241 88.8384 18.041 89.359 17.741C89.8708 17.4274 90.4096 17.1604 90.969 16.943C91.469 16.751 92.065 16.56 92.758 16.4C93.451 16.24 94.014 16.113 94.465 16.049C94.916 15.969 95.448 15.905 96.045 15.825C96.382 15.793 96.625 15.745 96.769 15.73C98.219 15.522 99.249 15.234 99.846 14.867C100.442 14.5 100.748 13.909 100.748 13.063C100.748 12.233 100.394 11.578 99.685 11.098C98.976 10.619 97.993 10.38 96.737 10.38C95.641 10.38 94.723 10.667 93.95 11.258C93.177 11.849 92.677 12.648 92.403 13.67H87.7V13.653ZM92.677 20.328C91.985 20.808 91.647 21.462 91.647 22.277C91.647 23.091 91.985 23.762 92.645 24.273C93.305 24.783 94.24 25.039 95.415 25.039C96.141 25.039 96.817 24.927 97.445 24.688C98.0836 24.4486 98.6653 24.0787 99.153 23.602C99.669 23.107 100.072 22.42 100.378 21.558C100.668 20.68 100.813 19.658 100.813 18.476V16.544C100.539 17.151 100.023 17.678 99.298 18.109C98.573 18.54 97.43 18.907 95.899 19.211C94.433 19.466 93.354 19.849 92.677 20.328ZM18.14 2.523C16.205 0.846 13.644 0 10.454 0H0V28.185H0.999C3.335 28.185 5.219 26.301 5.219 24.001V4.296H10.036C11.856 4.296 13.29 4.695 14.306 5.477C15.336 6.276 15.836 7.441 15.836 9.022C15.836 10.587 15.304 11.801 14.241 12.632C13.178 13.462 11.744 13.892 9.923 13.892C8.135 13.892 6.685 15.33 6.685 17.102V18.188H10.358C12.34 18.188 14.144 17.789 15.788 16.975C17.43 16.176 18.703 15.058 19.654 13.653C20.588 12.248 21.055 10.667 21.055 8.943C21.039 6.34 20.072 4.2 18.139 2.523H18.14Z" fill="#E0FFC0"/>
</g>
</g>
<defs>
<clipPath id="clip0_4_437">
<rect width="106" height="29" fill="white"/>
</clipPath>
</defs>
</svg>
