<svg width="145" height="145" viewBox="0 0 145 145" fill="none" xmlns="http://www.w3.org/2000/svg">
<g clip-path="url(#clip0_1_68)">
<path d="M29.4 0.600006H115.8C131.76 0.600006 144.6 13.44 144.6 29.4V115.8C144.6 131.76 131.76 144.6 115.8 144.6H29.4C13.44 144.6 0.599976 131.76 0.599976 115.8V29.4C0.599976 13.44 13.44 0.600006 29.4 0.600006Z" fill="#224722"/>
<path d="M97.5599 41.8801C92.3999 37.4401 85.5599 35.1601 77.1599 35.1601H49.3199V110.76H51.9599C58.1999 110.76 63.1199 105.72 63.1199 99.6V84.0001V72.4801V46.6801H75.9599C80.7599 46.6801 84.5999 47.7601 87.3599 49.8001C90.1199 51.9601 91.4399 55.0801 91.4399 59.2801C91.4399 63.4801 89.9999 66.7201 87.2399 69.0001C84.3599 71.2801 80.6399 72.3601 75.7199 72.3601C70.9199 72.3601 67.0799 76.2001 67.0799 81.0001V83.8801H76.7999C82.0799 83.8801 86.8799 82.8 91.1999 80.64C95.5199 78.48 98.9999 75.4801 101.52 71.7601C104.04 68.0401 105.24 63.7201 105.24 59.1601C105.24 52.2001 102.72 46.4401 97.5599 41.8801Z" fill="#C4DEA9"/>
</g>
<defs>
<clipPath id="clip0_1_68">
<rect width="144" height="144" fill="white" transform="translate(0.599976 0.600006)"/>
</clipPath>
</defs>
</svg>
