<svg width="106" height="20" viewBox="0 0 106 20" fill="none" xmlns="http://www.w3.org/2000/svg">
<g clip-path="url(#clip0_1_240)">
<path d="M11.2031 0.5L13.5601 7.755H21.1901L15.0171 12.239L17.3751 19.495L11.2031 15.01L5.03113 19.494L7.38913 12.238L1.21713 7.755H8.84613L11.2031 0.5Z" fill="#224722"/>
</g>
<g clip-path="url(#clip1_1_240)">
<path d="M32.2031 0.5L34.5601 7.755H42.1901L36.0171 12.239L38.3751 19.495L32.2031 15.01L26.0311 19.494L28.3891 12.238L22.2171 7.755H29.8461L32.2031 0.5Z" fill="#224722"/>
</g>
<g clip-path="url(#clip2_1_240)">
<path d="M53.2031 0.5L55.5601 7.755H63.1901L57.0171 12.239L59.3751 19.495L53.2031 15.01L47.0311 19.494L49.3891 12.238L43.2171 7.755H50.8461L53.2031 0.5Z" fill="#224722"/>
</g>
<g clip-path="url(#clip3_1_240)">
<path d="M74.2031 0.5L76.5601 7.755H84.1901L78.0171 12.239L80.3751 19.495L74.2031 15.01L68.0311 19.494L70.3891 12.238L64.2171 7.755H71.8461L74.2031 0.5Z" fill="#224722"/>
</g>
<g clip-path="url(#clip4_1_240)">
<path d="M95.2031 0.5L97.5601 7.755H105.19L99.0171 12.239L101.375 19.495L95.2031 15.01L89.0311 19.494L91.3891 12.238L85.2171 7.755H92.8461L95.2031 0.5Z" fill="#224722"/>
</g>
<defs>
<clipPath id="clip0_1_240">
<rect width="21" height="19" fill="white" transform="translate(0.703125 0.5)"/>
</clipPath>
<clipPath id="clip1_1_240">
<rect width="21" height="19" fill="white" transform="translate(21.7031 0.5)"/>
</clipPath>
<clipPath id="clip2_1_240">
<rect width="21" height="19" fill="white" transform="translate(42.7031 0.5)"/>
</clipPath>
<clipPath id="clip3_1_240">
<rect width="21" height="19" fill="white" transform="translate(63.7031 0.5)"/>
</clipPath>
<clipPath id="clip4_1_240">
<rect width="21" height="19" fill="white" transform="translate(84.7031 0.5)"/>
</clipPath>
</defs>
</svg>
