<svg width="30" height="30" viewBox="0 0 30 30" fill="none" xmlns="http://www.w3.org/2000/svg">
<path d="M15 8.33301C13.2321 8.33354 11.5368 9.03598 10.2867 10.286C9.03649 11.5359 8.33379 13.2311 8.33299 14.999C8.33379 16.767 9.03646 18.4623 10.2866 19.7124C11.5367 20.9625 13.232 21.6652 15 21.666C16.7678 21.6652 18.4629 20.9627 19.713 19.7128C20.9631 18.4628 21.6659 16.7678 21.667 15C21.6662 13.2321 20.9635 11.5367 19.7134 10.2866C18.4633 9.03647 16.7679 8.3338 15 8.33301ZM1.66699 16.333H4.33299C5.06699 16.333 5.66699 15.733 5.66699 15C5.66699 14.266 5.06699 13.666 4.33299 13.666H1.66699C0.932993 13.666 0.332993 14.266 0.332993 14.999C0.332993 15.733 0.932993 16.333 1.66699 16.333ZM25.667 16.333H28.333C29.067 16.333 29.667 15.733 29.667 15C29.667 14.266 29.067 13.666 28.333 13.666H25.667C24.933 13.666 24.333 14.266 24.333 14.999C24.333 15.733 24.933 16.333 25.667 16.333ZM13.667 1.66601V4.33301C13.667 5.06601 14.267 5.66601 15 5.66601C15.733 5.66601 16.333 5.06601 16.333 4.33301V1.66601C16.333 0.933008 15.733 0.333008 15 0.333008C14.267 0.333008 13.667 0.933008 13.667 1.66601ZM13.667 25.666V28.333C13.667 29.066 14.267 29.666 15 29.666C15.733 29.666 16.333 29.066 16.333 28.333V25.666C16.333 24.933 15.733 24.333 15 24.333C14.267 24.333 13.667 24.933 13.667 25.666ZM6.98699 5.10601C6.86364 4.9824 6.71712 4.88434 6.55583 4.81743C6.39453 4.75052 6.22162 4.71608 6.04699 4.71608C5.87237 4.71608 5.69946 4.75052 5.53816 4.81743C5.37686 4.88434 5.23034 4.9824 5.10699 5.10601C4.58699 5.62601 4.58699 6.48001 5.10699 6.98601L6.51999 8.40001C7.03999 8.92001 7.89299 8.92001 8.39999 8.40001C8.90699 7.88001 8.91999 7.02601 8.39999 6.52001L6.98699 5.10601ZM23.48 21.6C23.3566 21.4764 23.2101 21.3783 23.0488 21.3114C22.8875 21.2445 22.7146 21.2101 22.54 21.2101C22.3654 21.2101 22.1925 21.2445 22.0312 21.3114C21.8699 21.3783 21.7233 21.4764 21.6 21.6C21.08 22.12 21.08 22.974 21.6 23.48L23.013 24.894C23.533 25.414 24.387 25.414 24.893 24.894C25.413 24.374 25.413 23.521 24.893 23.014L23.48 21.6ZM24.893 6.98701C25.413 6.46701 25.413 5.61401 24.893 5.10701C24.7696 4.9834 24.6231 4.88534 24.4618 4.81843C24.3005 4.75152 24.1276 4.71708 23.953 4.71708C23.7784 4.71708 23.6055 4.75152 23.4442 4.81843C23.2829 4.88534 23.1363 4.9834 23.013 5.10701L21.6 6.52001C21.08 7.04001 21.08 7.89301 21.6 8.40001C22.12 8.90601 22.973 8.92001 23.48 8.40001L24.893 6.98601V6.98701ZM8.39999 23.48C8.91999 22.96 8.91999 22.106 8.39999 21.6C8.27664 21.4764 8.13012 21.3783 7.96882 21.3114C7.80753 21.2445 7.63462 21.2101 7.45999 21.2101C7.28537 21.2101 7.11246 21.2445 6.95116 21.3114C6.78986 21.3783 6.64334 21.4764 6.51999 21.6L5.10699 23.013C4.58699 23.533 4.58699 24.386 5.10699 24.893C5.62699 25.399 6.47999 25.413 6.98699 24.893L8.39999 23.48Z" fill="#224722"/>
</svg>
