<svg width="22" height="27" viewBox="0 0 22 27" fill="none" xmlns="http://www.w3.org/2000/svg">
<path d="M11.88 0.440021C11.6337 0.227208 11.319 0.110107 10.9935 0.110107C10.668 0.110107 10.3533 0.227208 10.107 0.440021C3.60001 6.17302 0.333008 11.16 0.333008 15.4C0.333008 22.04 5.40001 26.333 11 26.333C16.6 26.333 21.667 22.04 21.667 15.4C21.667 11.16 18.4 6.17302 11.88 0.440021ZM5.44001 15.666C5.93301 15.666 6.33301 16.013 6.42701 16.493C6.97301 19.453 9.46701 20.467 11.28 20.32C11.4156 20.3133 11.5512 20.3341 11.6785 20.3813C11.8058 20.4284 11.9222 20.501 12.0207 20.5945C12.1192 20.688 12.1976 20.8005 12.2513 20.9252C12.305 21.0499 12.3328 21.1842 12.333 21.32C12.333 21.853 11.907 22.293 11.373 22.32C8.53301 22.493 5.21301 20.866 4.45301 16.826C4.34701 16.226 4.82701 15.666 5.44001 15.666Z" fill="#224722"/>
</svg>
